v -13.341764 3.282743 0.721545
v -13.341764 3.282743 -0.836919
v -13.341764 3.161931 0.721545
v -13.341764 3.161931 -0.836919
v -13.462576 3.161931 0.721545
v -13.462576 3.161931 -0.836919
v -13.583387 2.920309 0.721545
v -13.583387 2.920309 -0.836919
v -13.583387 2.799498 0.721545
v -13.583387 2.799498 -0.836919
v -13.583387 2.678687 0.721545
v -13.583387 2.678687 -0.836919
v -13.341764 2.437064 -0.836919
v -13.220954 3.403554 -0.836919
v -13.220954 3.403554 0.721545
v -13.341764 2.437064 0.721545
v -13.100142 2.074631 -0.836919
v -13.100142 2.074631 0.721545
v -12.749790 1.833009 -0.836919
v -12.870602 3.524364 -0.836919
v -12.870602 3.524364 0.721545
v -12.749790 1.833009 0.721545
v -12.387357 1.724278 -0.836919
v -12.387357 1.724278 0.721545
v -12.024923 1.603467 -0.836919
v -12.266545 3.633095 -0.836919
v -12.266545 3.633095 0.721545
v -12.024923 1.603467 0.721545
v -11.662489 1.603467 -0.836919
v -11.662489 1.603467 0.721545
v -11.179245 1.603467 -0.836919
v -11.662489 3.645176 -0.836919
v -11.662489 3.645176 0.721545
v -11.179245 1.603467 0.721545
v -10.828892 1.845090 -0.836919
v -11.070515 3.765987 -0.836919
v -11.070515 3.765987 0.721545
v -10.828892 1.845090 0.721545
v -10.345648 2.086712 -0.836919
v -10.466459 3.765987 -0.836919
v -10.466459 3.765987 0.721545
v -10.345648 2.086712 0.721545
v -9.862403 2.316253 -0.836919
v -9.862403 3.886799 -0.836919
v -9.862403 3.886799 0.721545
v -9.862403 2.316253 0.721545
v -9.270428 2.678687 -0.836919
v -9.512051 3.886799 -0.836919
v -9.512051 3.886799 0.721545
v -9.270428 2.678687 0.721545
v -8.787184 2.799498 -0.836919
v -9.028806 3.886799 -0.836919
v -9.028806 3.886799 0.721545
v -8.787184 2.799498 0.721545
v -8.424749 2.920309 -0.836919
v -8.424749 2.920309 0.721545
v -7.941505 3.041121 -0.836919
v -8.545561 3.886799 -0.836919
v -8.545561 3.886799 0.721545
v -7.941505 3.041121 0.721545
v -7.699883 3.041121 -0.836919
v -7.832775 3.886799 -0.836919
v -7.832775 3.886799 0.721545
v -7.699883 3.041121 0.721545
v -7.349530 3.041121 -0.836919
v -7.349530 3.041121 0.721545
v -6.987097 2.920309 -0.836919
v -7.228719 3.886799 -0.836919
v -7.228719 3.886799 0.721545
v -6.987097 2.920309 0.721545
v -6.503852 2.799498 -0.836919
v -1.828459 2.086712 -0.836919
v -1.828459 2.086712 0.721545
v -1.949270 1.965900 -0.836919
v -1.949270 1.965900 0.721545
v -1.949270 2.207523 0.721545
v -1.949270 2.207523 -0.836919
v -1.949270 1.845090 -0.836919
v -1.949270 1.845090 0.721545
v -1.949270 2.328334 0.721545
v -1.949270 2.328334 -0.836919
v -2.070082 1.724278 -0.836919
v -2.070082 1.724278 0.721545
v -1.949270 2.449145 0.721545
v -1.949270 2.449145 -0.836919
v -2.070082 2.449145 -0.836919
v -2.299623 1.615548 -0.836919
v -2.662056 1.494737 -0.836919
v -2.662056 1.494737 0.721545
v -2.299623 1.615548 0.721545
v -2.070082 2.449145 0.721545
v -2.420434 2.690767 -0.836919
v -3.024489 1.494737 -0.836919
v -3.978898 1.724278 -0.836919
v -3.628546 1.603467 -0.836919
v -3.978898 1.724278 0.721545
v -3.628546 1.603467 0.721545
v -3.386924 1.603467 -0.836919
v -3.386924 1.603467 0.721545
v -3.024489 1.494737 0.721545
v -2.420434 2.690767 0.721545
v -3.266112 3.053202 -0.836919
v -4.582954 1.965900 -0.836919
v -5.066198 2.207523 -0.836919
v -5.066198 2.207523 0.721545
v -4.582954 1.965900 0.721545
v -3.266112 3.053202 0.721545
v -4.462143 3.403554 -0.836919
v -5.549443 2.569957 -0.836919
v -5.549443 3.645176 -0.836919
v -6.020607 2.690767 -0.836919
v -6.624663 3.765987 -0.836919
v -6.624663 3.765987 0.721545
v -6.503852 2.799498 0.721545
v -6.020607 2.690767 0.721545
v -5.549443 2.569957 0.721545
v -4.462143 3.403554 0.721545
v -5.549443 3.645176 0.721545
vn -0.924891 0.380233 0.000000
vn -0.924891 0.380233 0.000000
vn -0.712652 0.701517 0.000000
vn -0.712652 0.701517 0.000000
vn -0.531949 0.846776 0.000000
vn -0.531949 0.846776 0.000000
vn -0.973911 0.226931 0.000000
vn -0.973911 0.226931 0.000000
vn -1.000000 0.000000 0.000000
vn -1.000000 0.000000 0.000000
vn -1.000000 0.000000 0.000000
vn -1.000000 0.000000 0.000000
vn -0.701517 -0.712652 0.000000
vn -0.701517 -0.712652 0.000000
vn -0.701517 -0.712652 0.000000
vn 0.000000 0.000000 -1.000000
vn 0.000000 0.000000 -1.000000
vn 0.000000 0.000000 -1.000000
vn 0.000000 0.000000 -1.000000
vn 0.000000 0.000000 -1.000000
vn 0.000000 0.000000 -1.000000
vn 0.000000 0.000000 1.000000
vn -0.953391 0.301071 -0.020071
vn -0.967016 0.253964 -0.019536
vn 0.000000 0.000000 -1.000000
vn 0.000000 0.000000 -1.000000
vn 0.000000 0.000000 -1.000000
vn -0.712652 0.701517 0.000000
vn -0.712652 0.701517 0.000000
vn 0.000000 0.000000 1.000000
vn 0.000000 0.000000 1.000000
vn 0.000000 0.000000 1.000000
vn -0.953407 0.297299 0.051258
vn 0.000000 0.000000 -1.000000
vn -0.965959 0.251552 0.060372
vn 0.000000 0.000000 1.000000
vn 0.000000 0.000000 1.000000
vn 0.000000 0.000000 1.000000
vn 0.000000 0.000000 1.000000
vn 0.000000 0.000000 1.000000
vn 0.000000 0.000000 1.000000
vn -0.701517 -0.712652 0.000000
vn -0.830366 -0.557219 0.000000
vn -0.830366 -0.557219 0.000000
vn -0.830366 -0.557219 0.000000
vn -0.830366 -0.557219 0.000000
vn -0.557219 -0.830366 0.000000
vn -0.557219 -0.830366 0.000000
vn -0.557219 -0.830366 0.000000
vn 0.000000 0.000000 -1.000000
vn 0.000000 0.000000 -1.000000
vn 0.000000 0.000000 -1.000000
vn -0.319219 0.947681 0.000000
vn -0.319219 0.947681 0.000000
vn -0.319219 0.947681 0.000000
vn -0.319219 0.947681 0.000000
vn 0.000000 0.000000 1.000000
vn 0.000000 0.000000 1.000000
vn 0.000000 0.000000 1.000000
vn -0.557219 -0.830366 0.000000
vn -0.319219 -0.947681 0.000000
vn -0.319219 -0.947681 0.000000
vn -0.319219 -0.947681 0.000000
vn -0.319219 -0.947681 0.000000
vn -0.319219 -0.947681 0.000000
vn 0.000000 0.000000 -1.000000
vn 0.000000 0.000000 -1.000000
vn 0.000000 0.000000 -1.000000
vn -0.194336 0.980935 0.000000
vn -0.194336 0.980935 0.000000
vn -0.194336 0.980935 0.000000
vn -0.194336 0.980935 0.000000
vn 0.000000 0.000000 1.000000
vn 0.000000 0.000000 1.000000
vn 0.000000 0.000000 1.000000
vn -0.319219 -0.947681 0.000000
vn 0.000000 -1.000000 0.000000
vn 0.000000 -1.000000 0.000000
vn 0.000000 -1.000000 0.000000
vn 0.000000 -1.000000 0.000000
vn 0.000000 -1.000000 0.000000
vn 0.000000 0.000000 -1.000000
vn 0.000000 0.000000 -1.000000
vn 0.000000 0.000000 -1.000000
vn 0.000000 1.000000 0.000000
vn 0.000000 1.000000 0.000000
vn 0.000000 1.000000 0.000000
vn 0.000000 1.000000 0.000000
vn 0.000000 0.000000 1.000000
vn 0.000000 0.000000 1.000000
vn 0.000000 0.000000 1.000000
vn 0.000000 -1.000000 0.000000
vn 0.557219 -0.830366 0.000000
vn 0.557219 -0.830366 0.000000
vn 0.557219 -0.830366 0.000000
vn 0.000000 0.000000 -1.000000
vn 0.000000 0.000000 -1.000000
vn -0.194336 0.980935 0.000000
vn -0.194336 0.980935 0.000000
vn -0.194336 0.980935 0.000000
vn -0.194336 0.980935 0.000000
vn 0.000000 0.000000 1.000000
vn 0.000000 0.000000 1.000000
vn 0.557219 -0.830366 0.000000
vn 0.442990 -0.896527 0.000000
vn 0.442990 -0.896527 0.000000
vn 0.442990 -0.896527 0.000000
vn 0.000000 0.000000 -1.000000
vn 0.000000 0.000000 -1.000000
vn 0.000000 1.000000 0.000000
vn 0.000000 1.000000 0.000000
vn 0.000000 1.000000 0.000000
vn 0.000000 1.000000 0.000000
vn 0.000000 0.000000 1.000000
vn 0.000000 0.000000 1.000000
vn 0.442990 -0.896527 0.000000
vn 0.442990 -0.896527 0.000000
vn 0.000000 0.000000 -1.000000
vn 0.000000 0.000000 -1.000000
vn -0.194336 0.980935 0.000000
vn -0.194336 0.980935 0.000000
vn -0.194336 0.980935 0.000000
vn -0.194336 0.980935 0.000000
vn 0.000000 0.000000 1.000000
vn 0.000000 0.000000 1.000000
vn 0.442990 -0.896527 0.000000
vn 0.519260 -0.854616 0.000000
vn 0.519260 -0.854616 0.000000
vn 0.519260 -0.854616 0.000000
vn 0.000000 0.000000 -1.000000
vn 0.000000 0.000000 -1.000000
vn 0.000000 1.000000 0.000000
vn 0.000000 1.000000 0.000000
vn 0.000000 1.000000 0.000000
vn 0.000000 1.000000 0.000000
vn 0.000000 0.000000 1.000000
vn 0.000000 0.000000 1.000000
vn 0.519260 -0.854616 0.000000
vn 0.238052 -0.971252 0.000000
vn 0.238052 -0.971252 0.000000
vn 0.238052 -0.971252 0.000000
vn 0.000000 0.000000 -1.000000
vn 0.000000 0.000000 -1.000000
vn 0.000000 1.000000 0.000000
vn 0.000000 1.000000 0.000000
vn 0.000000 0.000000 1.000000
vn 0.000000 0.000000 1.000000
vn 0.238052 -0.971252 0.000000
vn 0.319219 -0.947681 0.000000
vn 0.319219 -0.947681 0.000000
vn 0.319219 -0.947681 0.000000
vn 0.319219 -0.947681 0.000000
vn 0.238052 -0.971252 0.000000
vn 0.238052 -0.971252 0.000000
vn 0.238052 -0.971252 0.000000
vn 0.000000 0.000000 -1.000000
vn 0.000000 0.000000 -1.000000
vn 0.000000 0.000000 -1.000000
vn 0.000000 1.000000 0.000000
vn 0.000000 1.000000 0.000000
vn 0.000000 0.000000 1.000000
vn 0.000000 0.000000 1.000000
vn 0.000000 0.000000 1.000000
vn 0.238052 -0.971252 0.000000
vn 0.000000 -1.000000 0.000000
vn 0.000000 -1.000000 0.000000
vn 0.000000 -1.000000 0.000000
vn 0.000000 0.000000 -1.000000
vn 0.000000 0.000000 -1.000000
vn 0.000000 1.000000 0.000000
vn 0.000000 1.000000 0.000000
vn 0.000000 0.000000 1.000000
vn 0.000000 0.000000 1.000000
vn 0.000000 -1.000000 0.000000
vn 0.000000 -1.000000 0.000000
vn 0.000000 -1.000000 0.000000
vn -0.319219 -0.947681 0.000000
vn -0.319219 -0.947681 0.000000
vn -0.319219 -0.947681 0.000000
vn 0.000000 0.000000 -1.000000
vn 0.000000 0.000000 -1.000000
vn 0.000000 0.000000 -1.000000
vn 0.000000 1.000000 0.000000
vn 0.000000 1.000000 0.000000
vn 0.000000 0.000000 1.000000
vn 0.000000 0.000000 1.000000
vn 0.000000 0.000000 1.000000
vn -0.319219 -0.947681 0.000000
vn -0.238052 -0.971252 0.000000
vn -0.238052 -0.971252 0.000000
vn -0.238052 -0.971252 0.000000
vn 1.000000 0.000000 0.000000
vn 1.000000 0.000000 0.000000
vn 0.924891 -0.380233 0.000000
vn 0.924891 -0.380233 0.000000
vn 0.000000 0.000000 1.000000
vn 0.000000 0.000000 1.000000
vn 0.000000 0.000000 1.000000
vn 0.924891 0.380233 0.000000
vn 0.924891 0.380233 0.000000
vn 0.000000 0.000000 -1.000000
vn 0.000000 0.000000 -1.000000
vn 0.000000 0.000000 -1.000000
vn 0.263499 0.263499 0.927975
vn -0.263499 0.263499 -0.927974
vn -0.687732 0.661780 -0.298450
vn 0.924891 -0.380233 0.000000
vn 0.924891 -0.380233 0.000000
vn -0.455671 0.000000 -0.890148
vn 0.263499 -0.263499 -0.927974
vn -0.702535 0.664215 0.255467
vn 0.000000 -0.380233 -0.924891
vn 1.000000 0.000000 0.000000
vn 1.000000 0.000000 0.000000
vn 0.000000 -0.380233 0.924891
vn 0.000000 0.000000 -1.000000
vn 0.000000 0.000000 -1.000000
vn 0.000000 0.000000 -1.000000
vn 0.712652 -0.701517 0.000000
vn 0.712652 -0.701517 0.000000
vn 0.000000 0.000000 1.000000
vn 0.000000 0.000000 1.000000
vn 0.000000 0.000000 1.000000
vn 0.000000 0.000000 1.000000
vn 0.701517 0.712652 0.000000
vn 0.701517 0.712652 0.000000
vn 0.000000 0.000000 -1.000000
vn 0.000000 0.000000 -1.000000
vn 0.000000 0.000000 -1.000000
vn 0.319219 -0.947681 0.000000
vn 0.319219 -0.947681 0.000000
vn 0.319219 -0.947681 0.000000
vn 0.319219 -0.947681 0.000000
vn 0.442990 -0.896527 0.000000
vn 0.442990 -0.896527 0.000000
vn 0.442990 -0.896527 0.000000
vn 0.442990 -0.896527 0.000000
vn 0.000000 0.000000 1.000000
vn 0.000000 0.000000 1.000000
vn 0.000000 1.000000 0.000000
vn 0.000000 1.000000 0.000000
vn 0.557219 0.830365 0.000000
vn 0.557219 0.830365 0.000000
vn 0.557219 0.830365 0.000000
vn 0.000000 0.000000 -1.000000
vn 0.000000 0.000000 -1.000000
vn 0.000000 0.000000 -1.000000
vn -0.319219 -0.947681 0.000000
vn -0.319219 -0.947681 0.000000
vn -0.319219 -0.947681 0.000000
vn -0.319219 -0.947681 0.000000
vn 0.000000 -1.000000 0.000000
vn 0.000000 -1.000000 0.000000
vn 0.000000 -1.000000 0.000000
vn 0.000000 -1.000000 0.000000
vn -0.319219 -0.947681 0.000000
vn -0.319219 -0.947681 0.000000
vn -0.319219 -0.947681 0.000000
vn -0.319219 -0.947681 0.000000
vn 0.000000 -1.000000 0.000000
vn 0.000000 -1.000000 0.000000
vn 0.000000 -1.000000 0.000000
vn 0.000000 -1.000000 0.000000
vn 0.000000 0.000000 1.000000
vn 0.000000 0.000000 1.000000
vn 0.000000 0.000000 1.000000
vn 0.557219 0.830365 0.000000
vn 0.392672 0.919679 0.000000
vn 0.392672 0.919679 0.000000
vn 0.392672 0.919679 0.000000
vn 0.000000 0.000000 -1.000000
vn 0.000000 0.000000 -1.000000
vn 0.000000 0.000000 -1.000000
vn 0.000000 0.000000 -1.000000
vn 0.000000 0.000000 -1.000000
vn -0.442990 -0.896527 0.000000
vn -0.442990 -0.896527 0.000000
vn -0.442990 -0.896527 0.000000
vn -0.442990 -0.896527 0.000000
vn -0.367864 -0.929880 0.000000
vn -0.367864 -0.929880 0.000000
vn -0.367864 -0.929880 0.000000
vn -0.367864 -0.929880 0.000000
vn 0.000000 0.000000 1.000000
vn 0.000000 0.000000 1.000000
vn 0.000000 0.000000 1.000000
vn 0.000000 0.000000 1.000000
vn 0.000000 0.000000 1.000000
vn 0.392672 0.919679 0.000000
vn 0.283755 0.958897 0.000000
vn 0.283755 0.958897 0.000000
vn 0.283755 0.958897 0.000000
vn 0.000000 0.000000 -1.000000
vn 0.000000 0.000000 -1.000000
vn 0.000000 0.000000 -1.000000
vn 0.000000 0.000000 -1.000000
vn 0.000000 0.000000 -1.000000
vn 0.000000 0.000000 -1.000000
vn 0.000000 0.000000 -1.000000
vn 0.194336 0.980935 0.000000
vn 0.194336 0.980935 0.000000
vn 0.194336 0.980935 0.000000
vn 0.194336 0.980935 0.000000
vn 0.000000 0.000000 1.000000
vn 0.000000 0.000000 1.000000
vn -0.238052 -0.971252 0.000000
vn -0.238052 -0.971252 0.000000
vn -0.238052 -0.971252 0.000000
vn -0.238052 -0.971252 0.000000
vn -0.238052 -0.971252 0.000000
vn -0.594701 -0.803947 0.000000
vn -0.594701 -0.803947 0.000000
vn -0.594701 -0.803947 0.000000
vn -0.594701 -0.803947 0.000000
vn 0.000000 0.000000 1.000000
vn 0.000000 0.000000 1.000000
vn 0.000000 0.000000 1.000000
vn 0.283755 0.958897 0.000000
vn 0.215936 0.976408 0.000000
vn 0.215936 0.976408 0.000000
vn 0.215936 0.976408 0.000000
vn 0.215936 0.976408 0.000000
vn 0.113301 0.993561 0.000000
vn 0.113301 0.993561 0.000000
vn 0.113301 0.993561 0.000000
vn 0.113301 0.993561 0.000000
vn 0.000000 0.000000 1.000000
vn 0.000000 0.000000 1.000000
f 1//1 2//2 3//3
f 2//2 4//4 3//3
f 3//3 4//4 5//5
f 4//4 6//6 5//5
f 5//5 6//6 7//7
f 6//6 8//8 7//7
f 7//7 8//8 9//9
f 8//8 10//10 9//9
f 9//9 10//10 11//11
f 10//10 12//12 11//11
f 11//13 12//14 13//15
f 12//16 10//17 13//18
f 10//17 8//19 13//18
f 8//19 6//20 13//18
f 6//20 4//21 13//18
f 4//22 2//23 13//24
f 13//25 2//26 14//27
f 2//2 1//1 14//28
f 14//28 1//1 15//29
f 15//30 1//31 16//32
f 1//33 3//34 16//35
f 3//36 5//37 16//38
f 5//37 7//39 16//38
f 7//39 9//40 16//38
f 9//40 11//41 16//38
f 11//13 13//15 16//42
f 13//43 17//44 16//45
f 16//45 17//44 18//46
f 18//47 17//48 19//49
f 19//50 17//51 20//52
f 17//51 13//25 20//52
f 13//25 14//27 20//52
f 20//53 14//54 21//55
f 14//54 15//56 21//55
f 15//30 16//32 21//57
f 16//32 18//58 21//57
f 21//57 18//58 22//59
f 18//47 19//49 22//60
f 19//61 23//62 22//63
f 22//63 23//62 24//64
f 24//64 23//62 25//65
f 25//66 23//67 26//68
f 23//67 19//50 26//68
f 19//50 20//52 26//68
f 26//69 20//70 27//71
f 20//70 21//72 27//71
f 21//57 22//59 27//73
f 22//59 24//74 27//73
f 27//73 24//74 28//75
f 24//64 25//65 28//76
f 25//77 29//78 28//79
f 28//79 29//78 30//80
f 30//80 29//78 31//81
f 31//82 29//83 32//84
f 29//83 25//66 32//84
f 25//66 26//68 32//84
f 32//85 26//86 33//87
f 26//86 27//88 33//87
f 27//73 28//75 33//89
f 28//75 30//90 33//89
f 33//89 30//90 34//91
f 30//80 31//81 34//92
f 34//93 31//94 35//95
f 31//82 32//84 35//96
f 35//96 32//84 36//97
f 36//98 32//99 37//100
f 32//99 33//101 37//100
f 37//102 33//89 38//103
f 33//89 34//91 38//103
f 34//93 35//95 38//104
f 38//105 35//106 39//107
f 35//96 36//97 39//108
f 39//108 36//97 40//109
f 40//110 36//111 41//112
f 36//111 37//113 41//112
f 41//114 37//102 42//115
f 37//102 38//103 42//115
f 38//105 39//107 42//116
f 42//116 39//107 43//117
f 39//108 40//109 43//118
f 43//118 40//109 44//119
f 44//120 40//121 45//122
f 40//121 41//123 45//122
f 45//124 41//114 46//125
f 41//114 42//115 46//125
f 42//116 43//117 46//126
f 46//127 43//128 47//129
f 43//118 44//119 47//130
f 47//130 44//119 48//131
f 48//132 44//133 49//134
f 44//133 45//135 49//134
f 49//136 45//124 50//137
f 45//124 46//125 50//137
f 46//127 47//129 50//138
f 50//139 47//140 51//141
f 47//130 48//131 51//142
f 51//142 48//131 52//143
f 52//144 48//132 53//145
f 48//132 49//134 53//145
f 53//146 49//136 54//147
f 49//136 50//137 54//147
f 50//139 51//141 54//148
f 51//149 55//150 54//151
f 54//151 55//150 56//152
f 56//153 55//154 57//155
f 57//156 55//157 58//158
f 55//157 51//142 58//158
f 51//142 52//143 58//158
f 58//159 52//144 59//160
f 52//144 53//145 59//160
f 53//146 54//147 59//161
f 54//147 56//162 59//161
f 59//161 56//162 60//163
f 56//153 57//155 60//164
f 60//165 57//166 61//167
f 61//168 57//156 62//169
f 57//156 58//158 62//169
f 62//170 58//159 63//171
f 58//159 59//160 63//171
f 59//161 60//163 63//172
f 63//172 60//163 64//173
f 60//165 61//167 64//174
f 61//167 65//175 64//174
f 64//174 65//175 66//176
f 66//177 65//178 67//179
f 67//180 65//181 68//182
f 65//181 61//168 68//182
f 61//168 62//169 68//182
f 68//183 62//170 69//184
f 62//170 63//171 69//184
f 63//172 64//173 69//185
f 64//173 66//186 69//185
f 69//185 66//186 70//187
f 66//177 67//179 70//188
f 70//189 67//190 71//191
f 72//192 73//193 74//194
f 74//194 73//193 75//195
f 75//196 73//197 76//198
f 73//193 72//192 76//199
f 76//199 72//192 77//200
f 72//201 74//202 77//203
f 77//204 74//205 78//206
f 74//194 75//195 78//207
f 78//207 75//195 79//208
f 75//209 76//210 79//211
f 79//211 76//210 80//212
f 76//199 77//200 80//213
f 80//213 77//200 81//214
f 77//204 78//206 81//215
f 81//216 78//217 82//218
f 78//207 79//208 82//219
f 82//219 79//208 83//220
f 79//221 80//222 83//223
f 83//223 80//222 84//224
f 80//213 81//214 84//225
f 84//225 81//214 85//226
f 81//216 82//218 85//227
f 85//227 82//218 86//228
f 86//228 82//218 87//229
f 88//230 87//231 89//232
f 89//232 87//231 90//233
f 87//234 82//235 90//236
f 82//235 83//237 90//236
f 90//238 83//223 91//239
f 83//223 84//224 91//239
f 84//225 85//226 91//240
f 85//226 86//241 91//240
f 91//242 86//243 92//244
f 86//228 87//229 92//245
f 87//229 88//246 92//245
f 92//245 88//246 93//247
f 94//248 95//249 96//250
f 96//250 95//249 97//251
f 95//252 98//253 97//254
f 97//254 98//253 99//255
f 98//256 93//257 99//258
f 99//258 93//257 100//259
f 93//260 88//261 100//262
f 88//261 89//263 100//262
f 100//264 89//265 101//266
f 89//265 90//238 101//266
f 90//238 91//239 101//266
f 91//242 92//244 101//267
f 101//268 92//269 102//270
f 92//245 93//247 102//271
f 93//247 98//272 102//271
f 98//272 95//273 102//271
f 95//273 94//274 102//271
f 102//271 94//274 103//275
f 104//276 103//277 105//278
f 105//278 103//277 106//279
f 103//280 94//281 106//282
f 94//281 96//283 106//282
f 106//284 96//285 107//286
f 96//285 97//287 107//286
f 97//287 99//288 107//286
f 99//288 100//264 107//286
f 100//264 101//266 107//286
f 101//268 102//270 107//289
f 107//290 102//291 108//292
f 102//271 103//275 108//293
f 103//275 104//294 108//293
f 104//294 109//295 108//293
f 108//293 109//295 110//296
f 109//295 111//297 110//296
f 111//297 71//298 110//296
f 110//296 71//298 112//299
f 71//298 67//180 112//299
f 67//180 68//182 112//299
f 112//300 68//301 113//302
f 68//301 69//303 113//302
f 69//185 70//187 113//304
f 113//304 70//187 114//305
f 70//189 71//191 114//306
f 71//191 111//307 114//306
f 114//306 111//307 115//308
f 111//307 109//309 115//308
f 115//308 109//309 116//310
f 109//311 104//312 116//313
f 104//312 105//314 116//313
f 116//315 105//316 117//317
f 105//316 106//284 117//317
f 106//284 107//286 117//317
f 107//290 108//292 117//318
f 108//319 110//320 117//321
f 117//321 110//320 118//322
f 110//323 112//324 118//325
f 112//324 113//326 118//325
f 113//304 114//305 118//327
f 114//305 115//328 118//327
f 115//328 116//315 118//327
f 117//317 118//327 116//315
